<?xml version="1.0" encoding="UTF-8"?>
<!DOCTYPE svg PUBLIC "-//W3C//DTD SVG 1.1//EN" "http://www.w3.org/Graphics/SVG/1.1/DTD/svg11.dtd">
<!-- Creator: CorelDRAW 2020 (64-Bit) -->
<svg xmlns="http://www.w3.org/2000/svg" xml:space="preserve" width="5in" height="2.25in" version="1.1" style="shape-rendering:geometricPrecision; text-rendering:geometricPrecision; image-rendering:optimizeQuality; fill-rule:evenodd; clip-rule:evenodd"
viewBox="0 0 5000 2250"
 xmlns:xlink="http://www.w3.org/1999/xlink"
 xmlns:xodm="http://www.corel.com/coreldraw/odm/2003">
 <defs>
  <style type="text/css">
   <![CDATA[
    .str4 {stroke:#373435;stroke-width:16.67;stroke-miterlimit:2.61313}
    .str1 {stroke:#373435;stroke-width:27.78;stroke-miterlimit:2.61313}
    .str2 {stroke:#373435;stroke-width:27.78;stroke-miterlimit:2.61313}
    .str3 {stroke:#FEFEFE;stroke-width:3;stroke-miterlimit:2.61313}
    .str0 {stroke:#477FE0;stroke-width:27.78;stroke-linejoin:bevel;stroke-miterlimit:2.61313}
    .fil0 {fill:none}
    .fil4 {fill:#FEFEFE}
    .fil3 {fill:#477FE0}
    .fil1 {fill:#373435;fill-rule:nonzero}
    .fil2 {fill:#4789E0;fill-rule:nonzero}
   ]]>
  </style>
 </defs>
 <g id="Slogan">
  <metadata id="CorelCorpID_0Corel-Layer"/>
  <path class="fil0 str0" d="M3250.44 1787.23c57.54,21.56 115.09,43.12 175.11,58.65 90.98,23.54 187.67,33.24 283.78,41.08 91.59,7.48 182.67,13.27 274.2,16.34 78.34,2.63 157,3.26 235.37,-0.33 66.34,-3.04 132.46,-9.1 197.96,-17.71 69.47,-9.14 138.24,-21.14 206.42,-35.59 58.13,-12.31 115.83,-26.4 169.94,-47.02 30.51,-11.63 59.88,-25.34 86.78,-41.5 12.63,-7.59 24.72,-15.72 36.81,-23.84"/>
  <path class="fil0 str0" d="M3299.48 1733.12c44.98,23.13 89.96,46.26 138.36,64.04 50.39,18.51 104.48,31.2 159.19,40.24 79.96,13.21 161.22,18.59 242.5,24.13 62.78,4.27 125.56,8.62 188.43,9.14 58.66,0.48 117.4,-2.37 175.99,-5.72 59.42,-3.39 118.69,-7.28 177.77,-13.71 59.76,-6.51 119.31,-15.63 176.9,-28.85 54,-12.39 106.27,-28.37 158.39,-47.13 36.29,-13.06 72.5,-27.47 99.31,-49.93 5.44,-4.55 10.48,-9.44 15.16,-14.52 8.99,-9.76 16.58,-20.23 24.18,-30.7"/>
  <path class="fil0 str0" d="M3427.04 1702.79c44.74,33.83 185.28,71.08 233.7,82.28 67.16,15.53 137.19,23.67 207.23,28.46 74.02,5.07 148.03,6.4 222.21,5.72 65.95,-0.61 132.03,-2.81 197.32,-9.15 61.37,-5.96 122.04,-15.57 182.48,-27.36 43.75,-8.54 87.38,-18.22 125.76,-37.41 25.98,-12.98 49.56,-30.32 63.06,-51.52 6.04,-9.49 10.07,-19.74 14.09,-30"/>
  <path class="fil0 str0" d="M3667.74 1549.51c42.48,-8.05 84.95,-16.1 127.88,-22.56 60.23,-9.07 121.35,-14.99 182.57,-17.44 52.07,-2.08 104.22,-1.65 156.44,0 59.8,1.89 119.69,5.36 178.24,14.17"/>
  <path class="fil0 str0" d="M4421.61 1531.23c39.76,8.35 79.51,16.7 118.9,27.46 28.62,7.81 57.04,16.9 80.49,31.69 10.5,6.63 20.01,14.4 27.53,23.14 5.89,6.84 10.56,14.28 15.23,21.71"/>
  <path class="fil0 str0" d="M3309.84 1603.23c43.07,-22.61 86.15,-45.21 132.36,-62.83 66.3,-25.28 139.04,-40.3 212.01,-51.49 72.15,-11.07 144.53,-18.4 217.31,-23.96 54.35,-4.16 108.93,-7.33 163.55,-8 67.61,-0.83 135.28,2.17 202.66,6.86 64.3,4.48 128.35,10.5 191.99,19.43 56.72,7.96 113.13,18.22 167.1,33.74 44.17,12.71 86.71,28.94 128.22,46.44 21.9,9.23 43.51,18.81 65.13,28.39"/>
  <path class="fil0 str0" d="M3213.89 1584.94c50.09,-25.15 100.19,-50.3 153.89,-69.17 67.14,-23.59 139.93,-37.37 212.58,-49.3 62.56,-10.27 125.02,-19.16 188.05,-25.54 62.9,-6.36 126.64,-14.04 190.09,-15.74 62.92,-1.69 114.65,-2.96 178.22,-2.28 59.98,1.46 130.35,6.85 189.89,11.17 77.85,5.65 154.81,17.32 231.54,31.33 66.33,12.11 132.49,25.97 193.49,48.5 45.19,16.69 87.54,38.15 129.9,59.6"/>
  <path class="fil0 str0" d="M3742.36 1709.52c40.54,9.61 81.09,19.22 122.38,26.8 55.85,10.26 113.07,16.83 170.33,17.77 44.67,0.74 89.37,-1.95 133.88,-5.46 39.5,-3.11 78.86,-6.88 118.05,-11.57 21.04,-2.52 42.04,-5.32 63.03,-8.11"/>
  <path class="fil0 str0" d="M3661.65 1534.65c-28.74,7.41 -57.47,14.81 -85.22,24.06 -26.06,8.68 -109.93,40.31 -134.03,59.16"/>
  <path class="fil1 str1" d="M872.78 718.13c101.04,-17.01 188.89,-34.03 263.54,-51.04l11.11 8.33c9.37,24.31 14.24,50.7 14.24,79.17 0,42.71 -7.98,90.97 -23.26,144.1 -15.63,53.13 -36.11,107.99 -61.81,164.93 -25.35,56.59 -53.82,113.54 -85.41,171.18 -31.6,57.64 -63.54,112.5 -96.53,164.93 -32.99,52.08 -64.59,100 -95.14,143.4 -30.56,43.4 -56.25,79.52 -77.43,108.68l-131.25 14.24c-30.56,-86.11 -60.07,-168.75 -88.89,-247.92 -28.82,-79.51 -59.03,-160.42 -90.97,-243.4 -10.07,-24.31 -22.22,-53.13 -35.76,-86.81 -13.54,-33.68 -27.78,-67.36 -43.06,-100.69 -15.28,-33.68 -31.25,-64.93 -47.22,-93.75 -16.32,-28.82 -31.94,-50.69 -46.87,-65.62 -17.02,-17.02 -36.81,-27.78 -59.03,-32.3 -22.57,-4.86 -52.43,-7.29 -89.59,-7.29l-6.25 -46.87c122.22,-37.15 218.4,-55.9 289.24,-55.9 34.37,0 63.89,5.9 87.85,17.71 23.96,12.15 45.14,34.72 63.54,67.71 8.68,14.24 21.18,38.54 37.15,72.22 15.97,34.03 33.68,73.26 52.78,118.06 19.44,44.79 39.58,92.36 60.07,142.36 20.83,50.35 39.58,98.61 56.6,145.48 14.93,42.71 29.51,88.54 43.75,137.5 24.31,-42.01 44.44,-83.68 60.07,-125.35 21.53,-56.94 37.15,-114.24 47.22,-171.87 9.72,-57.64 14.58,-113.89 14.58,-168.75 0,-73.26 -7.64,-140.62 -23.26,-202.43zm1071.53 494.44c-42.36,-7.64 -79.51,-11.11 -112.15,-11.11 -67.01,0 -120.83,13.54 -161.8,40.63 -40.63,27.08 -60.76,66.32 -60.76,118.06 0,59.37 23.61,103.47 71.18,131.59 47.22,28.13 119.09,42.36 214.58,42.36 77.43,0 160.42,-12.85 249.3,-37.85l6.94 52.78c-49.3,38.2 -111.8,68.06 -187.15,89.59 -75.35,21.87 -155.2,32.64 -239.93,32.64 -122.92,0 -224.31,-23.61 -304.86,-70.83 -80.21,-46.87 -120.48,-114.24 -120.48,-201.74 0,-56.25 19.79,-105.56 59.03,-147.92 39.24,-42.36 89.93,-71.87 151.74,-88.19 -62.5,-25 -109.03,-54.86 -139.93,-88.89 -30.9,-34.37 -46.53,-75.35 -46.53,-123.61 0,-90.97 41.94,-160.55 125.35,-208.68 83.26,-48.04 194.01,-86.66 331.59,-78.22 80.48,4.94 129.26,8.27 242.37,43.99 32.29,10.8 86.85,36.19 143.28,70.47l-13.24 57.09c-59.38,-22.84 -76.35,-27.78 -139,-42.43 -60.78,-14.43 -130.96,-17.21 -176.45,-17.21 -73.96,0 -132.29,13.19 -175,39.24 -42.71,26.04 -64.24,64.58 -64.24,115.28 0,52.43 21.18,92.7 63.89,121.53 42.36,28.82 102.43,43.4 180.56,43.4 29.86,0 60.42,-2.08 92.36,-6.25l9.37 124.31zm678.13 406.94c0,201.39 5.56,365.97 17.36,494.1 -97.22,10.42 -193.06,23.26 -287.85,38.89l-14.24 -7.3 0 -958.33c0,-157.99 45.14,-283.33 136.11,-376.04 90.97,-93.06 219.1,-139.58 384.72,-139.58 145.48,0 262.5,41.32 350.69,123.61 88.2,82.29 132.29,192.02 132.29,329.17 0,158.68 -48.96,287.85 -147.57,388.2 -98.26,100 -222.22,150 -372.22,150 -70.48,0 -136.81,-14.24 -199.31,-42.71zm0 -97.92c45.49,26.74 91.67,39.93 138.2,39.93 86.11,0 153.13,-35.07 200.35,-104.86 47.57,-69.79 71.53,-167.02 71.53,-290.97 0,-122.92 -20.14,-217.02 -59.72,-282.29 -39.58,-65.28 -94.79,-98.26 -165.28,-98.26 -64.93,0 -112.15,25.35 -141.32,75.35 -29.17,50.35 -43.75,132.98 -43.75,248.26l0 412.85z"/>
  <path class="fil2 str2" d="M3819.46 1160.81c0,123.61 18.4,223.61 55.21,300.69 36.8,76.74 95.83,115.28 177.08,115.28 75.35,0 131.25,-34.03 166.67,-101.74 35.42,-67.71 53.13,-168.41 53.13,-302.09 0,-125.35 -18.75,-223.96 -56.25,-296.18 -37.5,-72.22 -96.18,-108.33 -176.04,-108.33 -74.31,0 -129.52,32.64 -165.63,97.57 -36.11,65.28 -54.17,163.54 -54.17,294.79zm766.67 -7.99c0,154.52 -51.39,279.86 -154.17,375.7 -103.13,96.18 -237.15,144.09 -402.08,144.09 -160.42,0 -288.54,-45.14 -384.03,-135.76 -95.49,-90.62 -143.06,-209.03 -143.06,-355.56 0,-148.61 50,-270.48 150.35,-365.63 100,-95.48 235.42,-143.06 405.9,-143.06 161.81,0 290.28,43.75 385.07,131.6 94.79,87.85 142.01,204.17 142.01,348.61z"/>
  <path class="fil3 str1" d="M4085.82 97.49c-39.74,128.85 -62.79,102.56 -126.98,235.33 -22.83,47.16 -33.3,113.8 -12.59,163.3 27.94,66.76 107.88,102.1 173.56,71.22 121.93,-57.33 93.9,-188.25 27.98,-299.02 -40.68,-88.86 -25.68,-60.8 -61.96,-170.85z"/>
  <path class="fil4 str3" d="M4061.89 216.97c-127.85,154.49 -109.69,297.33 -23.59,317.09 -45.55,-72.26 -42.74,-189.98 23.59,-317.09z"/>
  <path class="fil4 str3" d="M4156.97 438.93c24.81,-81.17 -10.73,-128.69 -50.57,-177.52 30.74,66.41 49.02,103.67 50.57,177.52z"/>
  <path class="fil2 str4" d="M987.71 2125.92c-16.83,0 -31.08,-2.83 -42.75,-8.5 -11.75,-5.75 -21.25,-13.67 -28.67,-23.92 -7.33,-10.25 -12.67,-22.58 -16,-37 -3.33,-14.33 -5,-30.33 -5,-47.92 0,-14.17 1.67,-26.75 4.92,-37.92 3.25,-11.17 7.67,-20.91 13.33,-29.25 5.58,-8.42 12.08,-15.5 19.5,-21.33 7.41,-5.92 15.25,-10.67 23.5,-14.33 8.25,-3.67 16.67,-6.25 25.25,-7.92 8.67,-1.58 17,-2.42 25.17,-2.42 5,0 10.33,0.17 16,0.5 5.59,0.33 11.09,0.75 16.33,1.33 5.33,0.58 10.25,1.25 14.75,2 4.58,0.75 8.33,1.41 11.25,2.08l-8.08 32.08c-2.92,-0.92 -7.08,-2 -12.42,-3 -5.33,-1.08 -11.08,-2.08 -17.25,-3.08 -6.09,-1 -12.09,-1.75 -18,-2.42 -6,-0.67 -10.92,-1 -14.83,-1 -4.33,0 -8.25,0.08 -11.67,0.33 -3.42,0.25 -6.59,0.75 -9.42,1.5 -2.83,0.75 -5.5,1.75 -8.08,3 -2.5,1.33 -5.09,3 -7.67,4.91 -6.67,4.67 -11.17,13.59 -13.58,26.75 -2.33,13.17 -3.5,29.58 -3.5,49.17 0,30.25 4.5,53.08 13.42,68.58 9,15.5 23.33,23.25 43.25,23.25 11.17,0 22.92,-0.92 35.17,-2.75 12.17,-1.91 23.25,-4.5 33.17,-7.91l0 18.83c-5.5,2.58 -11.5,4.92 -17.92,6.92 -6.5,2.08 -13.08,3.75 -19.83,5.17 -6.75,1.33 -13.59,2.42 -20.5,3.17 -6.92,0.75 -13.5,1.08 -19.83,1.08zm179.75 0c-24.42,0 -43.08,-6.67 -56.08,-19.92 -12.92,-13.25 -19.42,-32.67 -19.42,-58.25 0,-12 1.58,-22.83 4.75,-32.59 3.17,-9.67 7.91,-17.91 14.33,-24.67 6.33,-6.75 14.25,-11.92 23.67,-15.58 9.41,-3.67 20.33,-5.5 32.75,-5.5 24.92,0 43.75,6.75 56.42,20.25 12.75,13.5 19.08,32.75 19.08,57.67 0,12.17 -1.58,23.08 -4.75,32.83 -3.17,9.67 -7.92,17.92 -14.33,24.67 -6.33,6.75 -14.25,11.92 -23.67,15.58 -9.42,3.67 -20.33,5.5 -32.75,5.5zm-31 -78.42c0,19.75 2.33,34.25 7.08,43.5 4.75,9.25 12.58,13.92 23.67,13.92 4.25,0 8.25,-0.33 12,-1.08 3.67,-0.75 6.83,-1.83 9.25,-3.33 1.58,-0.83 3,-2.75 4.25,-6 1.25,-3.17 2.33,-7.08 3.17,-11.83 0.92,-4.67 1.58,-10.08 2,-16.08 0.42,-6 0.58,-12.25 0.58,-18.83 0,-19.17 -2.42,-33.5 -7.17,-43.09 -4.83,-9.5 -12.58,-14.25 -23.33,-14.25 -4.08,0 -8.08,0.42 -12,1.25 -3.92,0.75 -7.33,2.09 -10.25,3.83 -1.59,1 -3,3.08 -4.25,6.17 -1.25,3.09 -2.17,7 -2.92,11.67 -0.75,4.75 -1.25,10.08 -1.58,15.92 -0.33,5.83 -0.5,11.91 -0.5,18.25zm240.25 75.42l0 -100.83c0,-9 -1.42,-15.58 -4.25,-19.83 -2.83,-4.25 -7.75,-6.33 -14.59,-6.33 -2.41,0 -5.17,0.33 -8.17,1 -3,0.67 -6,1.58 -9,2.75 -3,1.25 -6,2.67 -8.92,4.17 -2.92,1.58 -5.67,3.25 -8.08,5l0 114.08 -42.5 0 0 -150.5 38 0 3.83 17.58 0.5 0c2.92,-2 6.5,-4.08 10.58,-6.5 4.17,-2.33 8.67,-4.58 13.5,-6.67 4.92,-2.17 9.92,-3.92 15.08,-5.33 5.25,-1.42 10.33,-2.08 15.33,-2.08 5.75,0 11,0.92 16,2.83 4.92,1.83 9.25,4.58 13,8.25 3.75,3.67 6.67,8.25 8.92,13.83 2.17,5.5 3.25,12 3.25,19.5l0 109.08 -42.5 0zm191.08 -49.67c0,8.5 -1.75,15.5 -5.25,20.91 -3.5,5.5 -7.59,10.25 -12.25,14.33 -2.42,2.17 -5,4.25 -7.75,6.42 -2.83,2.08 -5.92,4 -9.25,5.58 -3.42,1.67 -7.33,3 -11.75,3.92 -4.42,1 -9.5,1.5 -15.33,1.5 -10.58,0 -20.25,-1.08 -29,-3.25 -8.67,-2.08 -16.83,-5.58 -24.5,-10.33l10.5 -27.92c3.25,1.92 6.75,4.17 10.33,6.58 3.67,2.42 7.58,4.67 11.75,6.75 4.17,2 8.5,3.75 13.08,5.08 4.58,1.42 9.17,2.08 13.92,2.08 3.25,0 6.25,-0.25 8.92,-0.75 2.67,-0.5 4.92,-1.33 6.67,-2.67 1.5,-1.17 2.58,-3.25 3.33,-6.25 0.75,-3 1.08,-6.67 1.08,-10.92 0,-4.92 -1.83,-8.75 -5.5,-11.67 -3.67,-2.83 -8.25,-5.33 -13.75,-7.41 -5.5,-2.17 -11.42,-4.25 -17.75,-6.42 -6.33,-2.08 -12.25,-4.92 -17.75,-8.42 -5.5,-3.5 -10.09,-8 -13.75,-13.5 -3.67,-5.5 -5.5,-12.67 -5.5,-21.67 0,-5.92 1.83,-11.75 5.42,-17.5 3.58,-5.83 7.5,-10.59 11.75,-14.33 5.17,-4.75 11,-8.25 17.33,-10.58 6.33,-2.25 13.67,-3.42 22,-3.42 7,0 14.42,0.42 22.25,1.17 7.75,0.83 15.08,1.75 21.91,2.67l-4.58 29.41c-3.42,-1.17 -7.17,-2.25 -11.17,-3.41 -4,-1.09 -7.92,-2.17 -11.83,-3.17 -3.92,-1 -7.67,-1.75 -11.33,-2.33 -3.67,-0.59 -7,-0.83 -9.92,-0.83 -3.75,0 -6.58,0.17 -8.5,0.58 -2,0.42 -3.5,1 -4.67,1.58 -1,0.67 -1.75,2.08 -2.33,4.17 -0.58,2.17 -0.83,4.33 -0.83,6.67 0,4.58 1.83,8.17 5.5,10.75 3.58,2.59 8.17,4.92 13.67,7 5.5,2 11.42,4.17 17.83,6.33 6.42,2.25 12.33,5.08 17.83,8.5 5.5,3.42 10.08,7.83 13.67,13.33 3.67,5.42 5.5,12.58 5.5,21.42zm98.25 -103.83c7.17,0 14.17,1 20.92,3.08 6.75,2 13,5.42 18.67,10.25 5.67,4.75 10.67,11.25 14.75,19.25 4.17,8.08 7.33,18.17 9.42,30.17l0 2c-1.33,1.75 -3.09,3.42 -5.25,4.92 -2.17,1.42 -5.08,2.67 -8.67,3.75 -3.58,1.08 -8,2 -13.17,2.92 -5.25,0.91 -11.5,1.58 -18.83,2.08l-47.33 3.67 0 6.33c0,11.75 3.08,21.42 9.25,29.08 6.25,7.67 15.5,11.5 27.83,11.5 5.08,0 10.33,-0.5 15.92,-1.58 5.5,-1.08 10.75,-2.33 15.75,-3.83 4.91,-1.42 9.5,-2.92 13.67,-4.5 4.17,-1.5 7.25,-2.83 9.42,-4l3.58 11c-4.5,3.42 -9.67,6.92 -15.33,10.58 -5.67,3.67 -11.83,6.92 -18.33,9.83 -6.5,2.92 -13.33,5.33 -20.59,7.17 -7.25,1.92 -14.75,2.83 -22.33,2.83 -9,0 -17.33,-1.33 -25.08,-4 -7.75,-2.75 -14.42,-7 -20,-12.83 -5.67,-5.83 -10.09,-13.5 -13.33,-23 -3.25,-9.42 -4.92,-20.92 -4.92,-34.42 0,-15.08 1.92,-27.91 5.67,-38.41 3.75,-10.5 8.92,-19 15.59,-25.42 6.67,-6.42 14.58,-11.08 23.58,-14 9.08,-2.92 18.75,-4.42 29.17,-4.42zm-20.25 25.42c-1.09,0.92 -2.17,2.75 -3.25,5.5 -1.08,2.67 -2,5.83 -2.83,9.5 -0.75,3.67 -1.41,7.5 -1.91,11.5 -0.5,3.92 -0.75,7.83 -0.75,11.58l47.08 -2.25c-0.42,-4.33 -1.17,-8.91 -2.17,-13.67 -1,-4.67 -2.42,-9 -4.25,-12.92 -1.91,-3.92 -4.17,-7.17 -7,-9.75 -2.75,-2.58 -6.08,-3.92 -10,-3.92 -2.75,0 -5.33,0.33 -7.83,1 -2.42,0.67 -4.75,1.75 -7.08,3.42zm208.67 11.5c-3.25,-1.17 -6.83,-2.08 -10.58,-2.83 -3.75,-0.75 -7.42,-1.08 -10.83,-1.08 -2.5,0 -4.67,0.17 -6.67,0.58 -2,0.42 -3.83,1.08 -5.5,2.08 -1.75,1 -3.5,2.33 -5.25,3.92 -1.67,1.67 -3.59,3.58 -5.75,5.92l0 108 -42.5 0 0 -150.5 38.58 0 3.67 23.92 0.25 0c1.17,-1.75 2.5,-3.83 4.17,-6.25 1.59,-2.33 3.33,-4.67 5.25,-7.08 1.83,-2.33 3.83,-4.5 5.83,-6.42 2,-2 4.08,-3.33 6.25,-4.17 3.67,-1.25 7.92,-2 12.67,-2.42 4.67,-0.42 9.83,-0.58 15.33,-0.58l-4.92 36.92zm6.67 -31.75c1.67,-0.33 3.83,-0.67 6.5,-1.08 2.67,-0.42 5.58,-0.83 8.67,-1.25 3.08,-0.42 6.17,-0.75 9.17,-1 3,-0.25 5.67,-0.33 7.92,-0.33 5.25,0 9.67,0.5 13.33,1.58 3.67,1.08 6.75,3.25 9.42,6.5 2.58,3.25 5.5,8.75 8.75,16.42 3.25,7.75 6.67,16.67 10.25,26.83 3.58,10.17 7.17,20.91 10.67,32.08 3.5,11.25 6.67,22 9.58,32.25l0.25 0c5.75,-10.42 10.25,-19.67 13.58,-27.75 3.33,-8 5.83,-15.58 7.58,-22.67 1.67,-7.08 2.75,-13.91 3.25,-20.5 0.5,-6.58 0.75,-13.67 0.75,-21.33 0,-3.25 -0.17,-6.92 -0.58,-11 -0.42,-4.08 -0.92,-7 -1.33,-8.75l32.25 -4.67c0.83,1.92 1.42,4.5 1.92,7.67 0.5,3.17 0.75,6.33 0.75,9.42 0,12 -1.67,24 -5,36 -3.33,11.92 -7.67,23.67 -13,35.17 -5.25,11.42 -11.17,22.59 -17.58,33.5 -6.42,10.92 -12.75,21.33 -18.92,31.25l-35.17 0c-4.17,-14 -8.67,-27.92 -13.25,-41.83 -4.67,-13.92 -9.25,-26.75 -13.67,-38.42 -4.5,-11.75 -8.67,-21.83 -12.5,-30.41 -3.83,-8.5 -7,-14.42 -9.67,-17.67 -3.25,-3.92 -7.17,-5.83 -11.92,-5.83l-2 0 0 -14.17zm251.5 -5.17c7.17,0 14.17,1 20.92,3.08 6.75,2 13,5.42 18.67,10.25 5.67,4.75 10.67,11.25 14.75,19.25 4.17,8.08 7.33,18.17 9.42,30.17l0 2c-1.33,1.75 -3.09,3.42 -5.25,4.92 -2.17,1.42 -5.08,2.67 -8.67,3.75 -3.58,1.08 -8,2 -13.17,2.92 -5.25,0.91 -11.5,1.58 -18.83,2.08l-47.33 3.67 0 6.33c0,11.75 3.08,21.42 9.25,29.08 6.25,7.67 15.5,11.5 27.83,11.5 5.08,0 10.33,-0.5 15.92,-1.58 5.5,-1.08 10.75,-2.33 15.75,-3.83 4.91,-1.42 9.5,-2.92 13.67,-4.5 4.17,-1.5 7.25,-2.83 9.42,-4l3.58 11c-4.5,3.42 -9.67,6.92 -15.33,10.58 -5.67,3.67 -11.83,6.92 -18.33,9.83 -6.5,2.92 -13.33,5.33 -20.59,7.17 -7.25,1.92 -14.75,2.83 -22.33,2.83 -9,0 -17.33,-1.33 -25.08,-4 -7.75,-2.75 -14.42,-7 -20,-12.83 -5.67,-5.83 -10.09,-13.5 -13.33,-23 -3.25,-9.42 -4.92,-20.92 -4.92,-34.42 0,-15.08 1.92,-27.91 5.67,-38.41 3.75,-10.5 8.92,-19 15.59,-25.42 6.67,-6.42 14.58,-11.08 23.58,-14 9.08,-2.92 18.75,-4.42 29.17,-4.42zm-20.25 25.42c-1.09,0.92 -2.17,2.75 -3.25,5.5 -1.08,2.67 -2,5.83 -2.83,9.5 -0.75,3.67 -1.41,7.5 -1.91,11.5 -0.5,3.92 -0.75,7.83 -0.75,11.58l47.08 -2.25c-0.42,-4.33 -1.17,-8.91 -2.17,-13.67 -1,-4.67 -2.42,-9 -4.25,-12.92 -1.91,-3.92 -4.17,-7.17 -7,-9.75 -2.75,-2.58 -6.08,-3.92 -10,-3.92 -2.75,0 -5.33,0.33 -7.83,1 -2.42,0.67 -4.75,1.75 -7.08,3.42z"/>
  <path class="fil2 str4" d="M2836.45 2018.26l5.83 -1.17c5.67,-1.33 11.08,-3 16.08,-5 5.08,-2.08 9.42,-5.08 13.08,-9.08 3.67,-4 6.59,-9.25 8.67,-15.75 2.08,-6.5 3.17,-14.75 3.17,-24.83 0,-15.17 -3.42,-26.17 -10.25,-33.08 -6.83,-6.92 -15.83,-10.42 -26.92,-10.42 -2.75,0 -5.58,0.08 -8.42,0.25 -2.83,0.17 -5.83,0.5 -8.92,1l0 202.75 -43.5 0 0 -224.08c4.58,-0.33 9.5,-0.67 14.92,-0.92 5.33,-0.33 10.92,-0.67 16.75,-0.92 5.75,-0.25 11.59,-0.42 17.33,-0.5 5.83,-0.08 11.42,-0.08 16.75,-0.08 13.17,0 24.67,1.5 34.33,4.5 9.75,3 17.75,7.17 24.08,12.67 6.33,5.5 11.09,12.25 14.17,20.08 3.08,7.92 4.67,16.83 4.67,26.75 0,10.42 -1.75,20.17 -5.17,29.33 -3.42,9.08 -8.67,17.08 -15.75,23.91 -7.08,6.83 -16.17,12.17 -27.08,16.09 -11,3.91 -24.08,5.83 -39.25,5.83l-1.92 0 -2.67 -17.33zm213.67 -11.92c-3.25,-1.17 -6.83,-2.08 -10.58,-2.83 -3.75,-0.75 -7.42,-1.08 -10.83,-1.08 -2.5,0 -4.67,0.17 -6.67,0.58 -2,0.42 -3.83,1.08 -5.5,2.08 -1.75,1 -3.5,2.33 -5.25,3.92 -1.67,1.67 -3.59,3.58 -5.75,5.92l0 108 -42.5 0 0 -150.5 38.58 0 3.67 23.92 0.25 0c1.17,-1.75 2.5,-3.83 4.17,-6.25 1.59,-2.33 3.33,-4.67 5.25,-7.08 1.83,-2.33 3.83,-4.5 5.83,-6.42 2,-2 4.08,-3.33 6.25,-4.17 3.67,-1.25 7.92,-2 12.67,-2.42 4.67,-0.42 9.83,-0.58 15.33,-0.58l-4.92 36.92zm96.83 119.58c-24.42,0 -43.08,-6.67 -56.08,-19.92 -12.92,-13.25 -19.42,-32.67 -19.42,-58.25 0,-12 1.58,-22.83 4.75,-32.59 3.17,-9.67 7.91,-17.91 14.33,-24.67 6.33,-6.75 14.25,-11.92 23.67,-15.58 9.41,-3.67 20.33,-5.5 32.75,-5.5 24.92,0 43.75,6.75 56.42,20.25 12.75,13.5 19.08,32.75 19.08,57.67 0,12.17 -1.58,23.08 -4.75,32.83 -3.17,9.67 -7.92,17.92 -14.33,24.67 -6.33,6.75 -14.25,11.92 -23.67,15.58 -9.42,3.67 -20.33,5.5 -32.75,5.5zm-31 -78.42c0,19.75 2.33,34.25 7.08,43.5 4.75,9.25 12.58,13.92 23.67,13.92 4.25,0 8.25,-0.33 12,-1.08 3.67,-0.75 6.83,-1.83 9.25,-3.33 1.58,-0.83 3,-2.75 4.25,-6 1.25,-3.17 2.33,-7.08 3.17,-11.83 0.92,-4.67 1.58,-10.08 2,-16.08 0.42,-6 0.58,-12.25 0.58,-18.83 0,-19.17 -2.42,-33.5 -7.17,-43.09 -4.83,-9.5 -12.58,-14.25 -23.33,-14.25 -4.08,0 -8.08,0.42 -12,1.25 -3.92,0.75 -7.33,2.09 -10.25,3.83 -1.59,1 -3,3.08 -4.25,6.17 -1.25,3.09 -2.17,7 -2.92,11.67 -0.75,4.75 -1.25,10.08 -1.58,15.92 -0.33,5.83 -0.5,11.91 -0.5,18.25zm145.75 -54.42l-16.08 -5.33 0 -9.09 46.33 -32.75 11.75 0 0.33 26.5 45.58 0 -2 16.58c-3.42,0.67 -7.58,1.25 -12.5,1.75 -5,0.5 -9.75,0.83 -14.33,1.17 -5.33,0.5 -10.92,1 -16.58,1.5l0 84.5c0,5.33 1,9.83 2.92,13.5 2,3.67 6,5.5 12.25,5.5 1.59,0 3.83,-0.08 6.59,-0.25 2.75,-0.17 5.67,-0.41 8.67,-0.75 3,-0.33 5.92,-0.67 8.75,-1.08 2.83,-0.42 5.25,-0.75 7.25,-1.08l0 12.5c-3.58,2.33 -7.75,4.67 -12.5,7 -4.67,2.41 -9.75,4.5 -15,6.41 -5.25,1.83 -10.58,3.42 -16,4.5 -5.33,1.17 -10.5,1.75 -15.33,1.75 -3.75,0 -7.42,-0.33 -11,-1.08 -3.58,-0.75 -6.83,-2.17 -9.67,-4.33 -2.83,-2.08 -5.17,-5.08 -6.83,-8.92 -1.75,-3.83 -2.58,-8.83 -2.58,-15l0 -103.5zm181.83 -23.67c7.17,0 14.17,1 20.92,3.08 6.75,2 13,5.42 18.67,10.25 5.67,4.75 10.67,11.25 14.75,19.25 4.17,8.08 7.33,18.17 9.42,30.17l0 2c-1.33,1.75 -3.09,3.42 -5.25,4.92 -2.17,1.42 -5.08,2.67 -8.67,3.75 -3.58,1.08 -8,2 -13.17,2.92 -5.25,0.91 -11.5,1.58 -18.83,2.08l-47.33 3.67 0 6.33c0,11.75 3.08,21.42 9.25,29.08 6.25,7.67 15.5,11.5 27.83,11.5 5.08,0 10.33,-0.5 15.92,-1.58 5.5,-1.08 10.75,-2.33 15.75,-3.83 4.91,-1.42 9.5,-2.92 13.67,-4.5 4.17,-1.5 7.25,-2.83 9.42,-4l3.58 11c-4.5,3.42 -9.67,6.92 -15.33,10.58 -5.67,3.67 -11.83,6.92 -18.33,9.83 -6.5,2.92 -13.33,5.33 -20.59,7.17 -7.25,1.92 -14.75,2.83 -22.33,2.83 -9,0 -17.33,-1.33 -25.08,-4 -7.75,-2.75 -14.42,-7 -20,-12.83 -5.67,-5.83 -10.09,-13.5 -13.33,-23 -3.25,-9.42 -4.92,-20.92 -4.92,-34.42 0,-15.08 1.92,-27.91 5.67,-38.41 3.75,-10.5 8.92,-19 15.59,-25.42 6.67,-6.42 14.58,-11.08 23.58,-14 9.08,-2.92 18.75,-4.42 29.17,-4.42zm-20.25 25.42c-1.09,0.92 -2.17,2.75 -3.25,5.5 -1.08,2.67 -2,5.83 -2.83,9.5 -0.75,3.67 -1.41,7.5 -1.91,11.5 -0.5,3.92 -0.75,7.83 -0.75,11.58l47.08 -2.25c-0.42,-4.33 -1.17,-8.91 -2.17,-13.67 -1,-4.67 -2.42,-9 -4.25,-12.92 -1.91,-3.92 -4.17,-7.17 -7,-9.75 -2.75,-2.58 -6.08,-3.92 -10,-3.92 -2.75,0 -5.33,0.33 -7.83,1 -2.42,0.67 -4.75,1.75 -7.08,3.42zm228.58 10.08c-5.42,-2.83 -11.75,-5.5 -19.17,-8.08 -7.42,-2.58 -15.42,-3.92 -24.08,-3.92 -3.59,0 -7.17,0.33 -10.67,1.08 -3.58,0.75 -6.75,2.08 -9.33,4.08 -2.92,2.08 -5.25,7.17 -7.09,15.08 -1.75,7.92 -2.67,20.33 -2.67,37.17 0,9.33 0.67,17.25 1.92,23.67 1.33,6.5 3.33,11.75 5.92,15.75 2.58,4 5.83,6.83 9.75,8.58 3.92,1.75 8.42,2.58 13.42,2.58 8,0 16.25,-0.83 24.92,-2.58 8.58,-1.67 16.42,-4 23.42,-6.92l3.92 10.92c-8.33,6.75 -17.75,12.33 -28.42,16.83 -10.67,4.5 -22.33,6.75 -35.08,6.75 -8.92,0 -17.33,-1.33 -25.25,-4 -7.92,-2.75 -14.75,-7 -20.42,-12.83 -5.67,-5.83 -10.25,-13.5 -13.58,-23 -3.33,-9.42 -5,-20.92 -5,-34.42 0,-12.83 1.75,-24.33 5.25,-34.5 3.5,-10.17 8.58,-18.83 15.25,-25.91 6.75,-7.09 15,-12.5 25,-16.25 9.92,-3.75 21.33,-5.58 34.17,-5.58 7.83,0 15.67,0.58 23.59,1.67 7.83,1.17 15.08,2.42 21.58,3.92l-7.33 29.92zm42 -11.83l-16.08 -5.33 0 -9.09 46.33 -32.75 11.75 0 0.33 26.5 45.58 0 -2 16.58c-3.42,0.67 -7.58,1.25 -12.5,1.75 -5,0.5 -9.75,0.83 -14.33,1.17 -5.33,0.5 -10.92,1 -16.58,1.5l0 84.5c0,5.33 1,9.83 2.92,13.5 2,3.67 6,5.5 12.25,5.5 1.59,0 3.83,-0.08 6.59,-0.25 2.75,-0.17 5.67,-0.41 8.67,-0.75 3,-0.33 5.92,-0.67 8.75,-1.08 2.83,-0.42 5.25,-0.75 7.25,-1.08l0 12.5c-3.58,2.33 -7.75,4.67 -12.5,7 -4.67,2.41 -9.75,4.5 -15,6.41 -5.25,1.83 -10.58,3.42 -16,4.5 -5.33,1.17 -10.5,1.75 -15.33,1.75 -3.75,0 -7.42,-0.33 -11,-1.08 -3.58,-0.75 -6.83,-2.17 -9.67,-4.33 -2.83,-2.08 -5.17,-5.08 -6.83,-8.92 -1.75,-3.83 -2.58,-8.83 -2.58,-15l0 -103.5z"/>
 </g>
</svg>
