<?xml version="1.0" encoding="UTF-8"?>
<svg version="1.1" xmlns="http://www.w3.org/2000/svg" width="64" height="64">
<path d="M0 0 C15.84 0 31.68 0 48 0 C47.16770772 4.16146139 46.67084377 5.96160363 44.59375 9.37109375 C43.85523804 10.59445435 43.85523804 10.59445435 43.10180664 11.8425293 C42.30891235 13.12703979 42.30891235 13.12703979 41.5 14.4375 C40.96044678 15.31897705 40.42089355 16.2004541 39.86499023 17.10864258 C38.76888401 18.89429513 37.66921496 20.67776579 36.56591797 22.45898438 C35.14927741 24.7577675 33.75998033 27.07037754 32.37890625 29.390625 C31.60788112 30.6569267 30.83582207 31.92259972 30.0625 33.1875 C29.39347656 34.29480469 28.72445312 35.40210938 28.03515625 36.54296875 C25.64862397 39.42421405 24.57356584 39.47824983 21 40 C20.54149658 39.19369141 20.08299316 38.38738281 19.6105957 37.55664062 C17.88797802 34.5291808 16.16384507 31.50259414 14.4387207 28.4765625 C13.69626166 27.1735171 12.95438593 25.87013914 12.21313477 24.56640625 C11.13976515 22.6787812 10.06443315 20.79229005 8.98828125 18.90625 C8.64113068 18.29628174 8.2939801 17.68631348 7.93630981 17.05786133 C6.04393735 13.75206236 4.07275697 10.52609455 1.98046875 7.34375 C0 4 0 4 0 0 Z " fill="#6FCBFA" transform="translate(8,12)"/>
<path d="M0 0 C15.84 0 31.68 0 48 0 C47.16770772 4.16146139 46.67084377 5.96160363 44.59375 9.37109375 C43.85523804 10.59445435 43.85523804 10.59445435 43.10180664 11.8425293 C42.30891235 13.12703979 42.30891235 13.12703979 41.5 14.4375 C40.96044678 15.31897705 40.42089355 16.2004541 39.86499023 17.10864258 C38.76888401 18.89429513 37.66921496 20.67776579 36.56591797 22.45898438 C35.14927741 24.7577675 33.75998033 27.07037754 32.37890625 29.390625 C31.60788112 30.6569267 30.83582207 31.92259972 30.0625 33.1875 C29.39347656 34.29480469 28.72445312 35.40210938 28.03515625 36.54296875 C25.64862397 39.42421405 24.57356584 39.47824983 21 40 C20.54149658 39.19369141 20.08299316 38.38738281 19.6105957 37.55664062 C17.88797802 34.5291808 16.16384507 31.50259414 14.4387207 28.4765625 C13.69626166 27.1735171 12.95438593 25.87013914 12.21313477 24.56640625 C11.13976515 22.6787812 10.06443315 20.79229005 8.98828125 18.90625 C8.64113068 18.29628174 8.2939801 17.68631348 7.93630981 17.05786133 C6.04393735 13.75206236 4.07275697 10.52609455 1.98046875 7.34375 C0 4 0 4 0 0 Z M2 1 C3.58340539 4.95851347 5.21855799 8.30218604 7.3359375 11.96484375 C7.98820313 13.09470703 8.64046875 14.22457031 9.3125 15.38867188 C9.65152344 15.97189209 9.99054687 16.5551123 10.33984375 17.15600586 C11.36864262 18.926559 12.39174273 20.70030897 13.4140625 22.47460938 C16.47339546 27.75918549 19.57492672 32.94625019 23 38 C26.75230948 33.57603608 29.75451027 28.78659454 32.8125 23.875 C33.87602211 22.17560601 34.93982305 20.47638647 36.00390625 18.77734375 C36.77178467 17.54927002 36.77178467 17.54927002 37.55517578 16.29638672 C38.80241674 14.31403653 40.06364503 12.34268036 41.33984375 10.37890625 C41.97019531 9.40824219 42.60054687 8.43757813 43.25 7.4375 C44.06210938 6.19806641 44.06210938 6.19806641 44.890625 4.93359375 C46.16588262 3.08241311 46.16588262 3.08241311 46 1 C31.48 1 16.96 1 2 1 Z " fill="#1BB2FE" transform="translate(8,12)"/>
</svg>
