<?xml version="1.0" encoding="UTF-8"?>
<!DOCTYPE svg PUBLIC "-//W3C//DTD SVG 1.1//EN" "http://www.w3.org/Graphics/SVG/1.1/DTD/svg11.dtd">
<!-- Creator: CorelDRAW 2020 (64-Bit) -->
<svg xmlns="http://www.w3.org/2000/svg" xml:space="preserve" width="8.5in" height="1.75in" version="1.1" style="shape-rendering:geometricPrecision; text-rendering:geometricPrecision; image-rendering:optimizeQuality; fill-rule:evenodd; clip-rule:evenodd"
viewBox="0 0 8500 1750"
 xmlns:xlink="http://www.w3.org/1999/xlink"
 xmlns:xodm="http://www.corel.com/coreldraw/odm/2003">
 <defs>
  <style type="text/css">
   <![CDATA[
    .str2 {stroke:#FEFEFE;stroke-width:83.33;stroke-miterlimit:2.61313}
    .str1 {stroke:#FEFEFE;stroke-width:41.67;stroke-linejoin:bevel;stroke-miterlimit:2.61313}
    .str0 {stroke:#FEFEFE;stroke-width:83.33;stroke-linejoin:bevel;stroke-miterlimit:2.61313}
    .fil0 {fill:none}
    .fil3 {fill:#FEFEFE}
    .fil2 {fill:#008FD4}
    .fil1 {fill:#80827A}
   ]]>
  </style>
 </defs>
 <g id="Logos">
  <metadata id="CorelCorpID_0Corel-Layer"/>
  <g>
   <path class="fil0 str0" d="M2359.51 733.32c0,0 -39.4,149.51 -39.4,149.51 0,0 -619.72,0 -619.72,0 0,0 -45.46,175.78 -45.46,175.78 0,0 613.67,0 613.67,0 0,0 -37.88,139.42 -37.88,139.42 0,0 -613.67,0 -613.67,0 0,0 -22.72,85.87 -22.72,85.87 -3.04,12.12 -4.55,22.22 -4.55,32.33 0,52.53 43.94,77.79 130.31,77.79 0,0 468.2,0 468.2,0 0,0 -39.39,149.51 -39.39,149.51 0,0 -465.17,0 -465.17,0 -218.2,0 -325.78,-62.63 -325.78,-186.89 0,-22.22 3.04,-46.47 10.61,-72.74 0,0 145.46,-550.57 145.46,-550.57 0,0 845.5,0 845.5,0z"/>
   <path id="1" class="fil1" d="M2359.51 733.32c0,0 -39.4,149.51 -39.4,149.51 0,0 -619.72,0 -619.72,0 0,0 -45.46,175.78 -45.46,175.78 0,0 613.67,0 613.67,0 0,0 -37.88,139.42 -37.88,139.42 0,0 -613.67,0 -613.67,0 0,0 -22.72,85.87 -22.72,85.87 -3.04,12.12 -4.55,22.22 -4.55,32.33 0,52.53 43.94,77.79 130.31,77.79 0,0 468.2,0 468.2,0 0,0 -39.39,149.51 -39.39,149.51 0,0 -465.17,0 -465.17,0 -218.2,0 -325.78,-62.63 -325.78,-186.89 0,-22.22 3.04,-46.47 10.61,-72.74 0,0 145.46,-550.57 145.46,-550.57 0,0 845.5,0 845.5,0z"/>
  </g>
  <g>
   <path class="fil0 str0" d="M2217.06 1543.53c0,0 156.07,-589.98 156.07,-589.98 0,0 512.15,0 512.15,0 159.1,0 237.89,44.45 237.89,134.37 0,15.15 -3.03,32.33 -7.57,50.51 0,0 -107.58,405.1 -107.58,405.1 0,0 -225.77,0 -225.77,0 0,0 112.13,-425.31 112.13,-425.31 0,-3.03 1.52,-6.06 1.52,-9.09 0,-17.18 -15.15,-26.27 -45.45,-26.27 0,0 -286.39,0 -286.39,0 0,0 -121.22,460.67 -121.22,460.67 0,0 -225.77,0 -225.77,0z"/>
   <path id="1" class="fil1" d="M2217.06 1543.53c0,0 156.07,-589.98 156.07,-589.98 0,0 512.15,0 512.15,0 159.1,0 237.89,44.45 237.89,134.37 0,15.15 -3.03,32.33 -7.57,50.51 0,0 -107.58,405.1 -107.58,405.1 0,0 -225.77,0 -225.77,0 0,0 112.13,-425.31 112.13,-425.31 0,-3.03 1.52,-6.06 1.52,-9.09 0,-17.18 -15.15,-26.27 -45.45,-26.27 0,0 -286.39,0 -286.39,0 0,0 -121.22,460.67 -121.22,460.67 0,0 -225.77,0 -225.77,0z"/>
  </g>
  <g>
   <path class="fil0 str0" d="M3645.91 1543.53c0,0 -386.39,0 -386.39,0 0,0 -65.15,-589.98 -65.15,-589.98 0,0 230.32,0 230.32,0 0,0 34.85,471.78 34.85,471.78 0,0 46.98,0 46.98,0 0,0 200.34,-335.37 200.34,-335.37 50.54,-84.61 141.84,-136.41 240.39,-136.41 0,0 77.47,0 77.47,0 0,0 -378.81,589.98 -378.81,589.98z"/>
   <path id="1" class="fil1" d="M3645.91 1543.53c0,0 -386.39,0 -386.39,0 0,0 -65.15,-589.98 -65.15,-589.98 0,0 230.32,0 230.32,0 0,0 34.85,471.78 34.85,471.78 0,0 46.98,0 46.98,0 0,0 200.34,-335.37 200.34,-335.37 50.54,-84.61 141.84,-136.41 240.39,-136.41 0,0 77.47,0 77.47,0 0,0 -378.81,589.98 -378.81,589.98z"/>
  </g>
  <g>
   <path class="fil0 str0" d="M4208.87 725.48c0,0 135.53,0 135.53,0 0,0 -41.06,144.35 -41.06,144.35 0,0 -225.76,0 -225.76,0 0,0 17.41,-57.27 17.41,-57.27 13.95,-51.41 60.62,-87.09 113.88,-87.09z"/>
   <path id="1" class="fil1" d="M4208.87 725.48c0,0 135.53,0 135.53,0 0,0 -41.06,144.35 -41.06,144.35 0,0 -225.76,0 -225.76,0 0,0 17.41,-57.27 17.41,-57.27 13.95,-51.41 60.62,-87.09 113.88,-87.09z"/>
  </g>
  <g>
   <path class="fil0 str0" d="M4230.76 1543.53c0,0 107.58,-407.13 107.58,-407.13 31.81,-122.24 140.91,-182.85 327.29,-182.85 0,0 181.83,0 181.83,0 0,0 -34.85,129.31 -34.85,129.31 0,0 -181.83,0 -181.83,0 -36.37,0 -54.55,11.11 -60.61,33.34 0,0 -113.64,427.33 -113.64,427.33 0,0 -225.77,0 -225.77,0z"/>
   <path id="1" class="fil1" d="M4230.76 1543.53c0,0 107.58,-407.13 107.58,-407.13 31.81,-122.24 140.91,-182.85 327.29,-182.85 0,0 181.83,0 181.83,0 0,0 -34.85,129.31 -34.85,129.31 0,0 -181.83,0 -181.83,0 -36.37,0 -54.55,11.11 -60.61,33.34 0,0 -113.64,427.33 -113.64,427.33 0,0 -225.77,0 -225.77,0z"/>
  </g>
  <g>
   <path class="fil0 str0" d="M5158.07 953.55c0,0 240.92,0 240.92,0 186.37,0 236.38,116.17 236.38,213.16 0,114.16 -86.37,376.82 -392.45,376.82 0,0 -240.92,0 -240.92,0 -184.86,0 -233.35,-124.26 -233.35,-222.25 0,-115.17 75.76,-367.72 389.43,-367.72zm186.37 129.31c0,0 -201.53,0 -201.53,0 -89.41,0 -156.07,171.74 -156.07,233.37 0,42.43 15.16,97.99 69.7,97.99 0,0 201.52,0 201.52,0 90.93,0 157.59,-206.09 157.59,-236.39 0,-42.43 -16.67,-94.96 -71.22,-94.96z"/>
   <path id="1" class="fil1" d="M5158.07 953.55c0,0 240.92,0 240.92,0 186.37,0 236.38,116.17 236.38,213.16 0,114.16 -86.37,376.82 -392.45,376.82 0,0 -240.92,0 -240.92,0 -184.86,0 -233.35,-124.26 -233.35,-222.25 0,-115.17 75.76,-367.72 389.43,-367.72zm186.37 129.31c0,0 -201.53,0 -201.53,0 -89.41,0 -156.07,171.74 -156.07,233.37 0,42.43 15.16,97.99 69.7,97.99 0,0 201.52,0 201.52,0 90.93,0 157.59,-206.09 157.59,-236.39 0,-42.43 -16.67,-94.96 -71.22,-94.96z"/>
  </g>
  <g>
   <path class="fil0 str0" d="M6050.03 730.41c0,0 -58.21,223.14 -58.21,223.14 0,0 187.89,0 187.89,0 0,0 -27.27,105.06 -27.27,105.06 0,0 -187.89,0 -187.89,0 0,0 -90.92,342.47 -90.92,342.47 -1.5,4.04 -1.5,7.07 -1.5,10.11 0,16.16 13.63,24.25 42.43,24.25 0,0 122.74,0 122.74,0 0,0 -28.8,108.09 -28.8,108.09 0,0 -219.7,0 -219.7,0 -104.56,0 -156.07,-25.26 -156.07,-75.77 0,-8.08 1.52,-16.17 4.55,-25.26 0,0 101.52,-383.89 101.52,-383.89 0,0 -74.24,0 -74.24,0 0,0 27.27,-105.06 27.27,-105.06 0,0 74.26,0 74.26,0 0,0 36.46,-139.78 36.46,-139.78 12.81,-49.1 57.16,-83.35 107.9,-83.35 0,0 139.61,0 139.61,0z"/>
   <path id="1" class="fil2" d="M6050.03 730.41c0,0 -58.21,223.14 -58.21,223.14 0,0 187.89,0 187.89,0 0,0 -27.27,105.06 -27.27,105.06 0,0 -187.89,0 -187.89,0 0,0 -90.92,342.47 -90.92,342.47 -1.5,4.04 -1.5,7.07 -1.5,10.11 0,16.16 13.63,24.25 42.43,24.25 0,0 122.74,0 122.74,0 0,0 -28.8,108.09 -28.8,108.09 0,0 -219.7,0 -219.7,0 -104.56,0 -156.07,-25.26 -156.07,-75.77 0,-8.08 1.52,-16.17 4.55,-25.26 0,0 101.52,-383.89 101.52,-383.89 0,0 -74.24,0 -74.24,0 0,0 27.27,-105.06 27.27,-105.06 0,0 74.26,0 74.26,0 0,0 36.46,-139.78 36.46,-139.78 12.81,-49.1 57.16,-83.35 107.9,-83.35 0,0 139.61,0 139.61,0z"/>
  </g>
  <g>
   <path class="fil0 str0" d="M6078.16 1543.53c0,0 107.58,-407.13 107.58,-407.13 31.81,-122.24 140.91,-182.85 327.29,-182.85 0,0 181.83,0 181.83,0 0,0 -34.84,129.31 -34.84,129.31 0,0 -181.84,0 -181.84,0 -36.36,0 -54.55,11.11 -60.6,33.34 0,0 -113.65,427.33 -113.65,427.33 0,0 -225.77,0 -225.77,0z"/>
   <path id="1" class="fil2" d="M6078.16 1543.53c0,0 107.58,-407.13 107.58,-407.13 31.81,-122.24 140.91,-182.85 327.29,-182.85 0,0 181.83,0 181.83,0 0,0 -34.84,129.31 -34.84,129.31 0,0 -181.84,0 -181.84,0 -36.36,0 -54.55,11.11 -60.6,33.34 0,0 -113.65,427.33 -113.65,427.33 0,0 -225.77,0 -225.77,0z"/>
  </g>
  <g>
   <path class="fil0 str0" d="M7231.23 953.55c157.59,0 236.39,45.46 236.39,134.37 0,15.15 -3.04,32.33 -7.58,50.51 0,0 -107.57,405.1 -107.57,405.1 0,0 -525.81,0 -525.81,0 -157.57,0 -237.89,-42.43 -237.89,-127.29 0,-14.15 3.03,-30.31 7.57,-47.48 0,0 4.55,-21.22 4.55,-21.22 28.78,-109.1 136.36,-163.66 321.23,-163.66 0,0 301.53,0 301.53,0 0,0 16.67,-65.66 16.67,-65.66 0,-3.03 1.51,-6.06 1.51,-9.09 0,-17.18 -15.16,-26.27 -45.46,-26.27 0,0 -460.62,0 -460.62,0 0,0 34.85,-129.31 34.85,-129.31 0,0 460.62,0 460.62,0zm-36.36 338.43c0,0 -301.53,0 -301.53,0 -34.85,0 -56.06,11.11 -62.13,34.35 0,0 -16.66,62.63 -16.66,62.63 0,2.02 -1.52,4.04 -1.52,5.06 0,14.14 16.67,20.2 48.48,20.2 0,0 301.53,0 301.53,0 0,0 31.83,-122.24 31.83,-122.24z"/>
   <path id="1" class="fil2" d="M7231.23 953.55c157.59,0 236.39,45.46 236.39,134.37 0,15.15 -3.04,32.33 -7.58,50.51 0,0 -107.57,405.1 -107.57,405.1 0,0 -525.81,0 -525.81,0 -157.57,0 -237.89,-42.43 -237.89,-127.29 0,-14.15 3.03,-30.31 7.57,-47.48 0,0 4.55,-21.22 4.55,-21.22 28.78,-109.1 136.36,-163.66 321.23,-163.66 0,0 301.53,0 301.53,0 0,0 16.67,-65.66 16.67,-65.66 0,-3.03 1.51,-6.06 1.51,-9.09 0,-17.18 -15.16,-26.27 -45.46,-26.27 0,0 -460.62,0 -460.62,0 0,0 34.85,-129.31 34.85,-129.31 0,0 460.62,0 460.62,0zm-36.36 338.43c0,0 -301.53,0 -301.53,0 -34.85,0 -56.06,11.11 -62.13,34.35 0,0 -16.66,62.63 -16.66,62.63 0,2.02 -1.52,4.04 -1.52,5.06 0,14.14 16.67,20.2 48.48,20.2 0,0 301.53,0 301.53,0 0,0 31.83,-122.24 31.83,-122.24z"/>
  </g>
  <g>
   <path class="fil0 str0" d="M7955.5 1097.01c0,0 81.75,-62.93 81.75,-62.93 67.84,-52.21 151.04,-80.52 236.64,-80.52 0,0 127.08,0 127.08,0 0,0 -346.99,261.65 -346.99,261.65 0,0 259.11,328.32 259.11,328.32 0,0 -268.2,0 -268.2,0 0,0 -142.44,-218.21 -142.44,-218.21 0,0 -324.98,263.85 -324.98,263.85 -74.38,63.01 -168.7,97.59 -266.18,97.59 0,0 -114.19,0 -114.19,0 0,0 608.37,-473.57 608.37,-473.57 0,0 -207.58,-259.63 -207.58,-259.63 0,0 262.12,0 262.12,0 0,0 95.47,143.46 95.47,143.46z"/>
   <path id="1" class="fil2" d="M7955.5 1097.01c0,0 81.75,-62.93 81.75,-62.93 67.84,-52.21 151.04,-80.52 236.64,-80.52 0,0 127.08,0 127.08,0 0,0 -346.99,261.65 -346.99,261.65 0,0 259.11,328.32 259.11,328.32 0,0 -268.2,0 -268.2,0 0,0 -142.44,-218.21 -142.44,-218.21 0,0 -324.98,263.85 -324.98,263.85 -74.38,63.01 -168.7,97.59 -266.18,97.59 0,0 -114.19,0 -114.19,0 0,0 608.37,-473.57 608.37,-473.57 0,0 -207.58,-259.63 -207.58,-259.63 0,0 262.12,0 262.12,0 0,0 95.47,143.46 95.47,143.46z"/>
  </g>
  <path class="fil3" d="M8403.7 1525.92c-41.18,0 -68.24,-28.63 -68.24,-69.81 0,-43.15 26.67,-70.61 68.24,-70.61 40.8,0 67.86,27.07 67.86,70.61 0,41.18 -26.67,69.81 -67.86,69.81zm0 -14.12c33.35,0 52.18,-21.18 52.18,-55.69 0,-34.52 -18.44,-56.48 -52.18,-56.48 -34.51,0 -52.56,21.18 -52.56,56.48 0,34.51 18.83,55.69 52.56,55.69z"/>
  <path class="fil3" d="M8405.28 1476.5c0,0 -7.84,-11.37 -7.84,-11.37 0,0 -7.07,0 -7.07,0 0,0 0,25.1 0,25.1 0,1.96 -1.57,3.53 -3.52,3.53 0,0 -12.95,0 -12.95,0 -1.96,0 -3.54,-1.57 -3.54,-3.53 0,0 0,-69.81 0,-69.81 0,-1.96 1.57,-3.53 3.54,-3.53 0,0 28.63,0 28.63,0 21.17,0 33.34,8.24 33.34,23.93 0,10.98 -6.28,18.43 -17.26,21.96 0,0 18.05,27.85 18.05,27.85 0.78,1.57 0,3.14 -1.57,3.14 0,0 -16.08,0 -16.08,0 -1.96,0 -4.31,-1.18 -5.49,-3.14 0,0 -8.23,-14.12 -8.23,-14.12zm-2.35 -45.49c0,0 -12.56,0 -12.56,0 0,0 0,20.39 0,20.39 0,0 12.95,0 12.95,0 7.06,0 12.94,-3.14 12.94,-10.2 0,-7.06 -4.7,-10.19 -13.33,-10.19z"/>
  <g>
   <path class="fil0 str1" d="M334.49 1306.93c-179.55,-122.37 -273.13,-256.46 -273.13,-394.2 0,-227.04 267.5,-451.77 733.92,-616.56 481.48,-170.1 1122.17,-263.78 1804.02,-263.78 716.14,0 1380.8,103.77 1854.13,281.21 -457.67,-133.17 -1037.76,-208.82 -1639.26,-208.82 -687.42,0 -1334.07,94.71 -1820.81,266.67 -494.94,174.86 -767.52,410.7 -767.52,664.07 0,93.86 36.42,184.63 108.65,271.41z"/>
   <path id="1" class="fil2" d="M334.49 1306.93c-179.55,-122.37 -273.13,-256.46 -273.13,-394.2 0,-227.04 267.5,-451.77 733.92,-616.56 481.48,-170.1 1122.17,-263.78 1804.02,-263.78 716.14,0 1380.8,103.77 1854.13,281.21 -457.67,-133.17 -1037.76,-208.82 -1639.26,-208.82 -687.42,0 -1334.07,94.71 -1820.81,266.67 -494.94,174.86 -767.52,410.7 -767.52,664.07 0,93.86 36.42,184.63 108.65,271.41z"/>
  </g>
  <g>
   <path class="fil0 str1" d="M829.15 1176.61c-103.8,-79.67 -157.64,-165.29 -157.64,-252.71 0,-161.03 191.71,-321.1 525.98,-439.19 347.39,-122.73 809.76,-190.31 1301.98,-190.31 420,0 815.41,49.4 1131.97,136.54 -290.91,-63.22 -628.82,-98.16 -976.62,-98.16 -1053.27,0 -1878.35,298.66 -1878.35,679.9 0,56.36 17.65,111.13 52.69,163.94z"/>
   <path id="1" class="fil2" d="M829.15 1176.61c-103.8,-79.67 -157.64,-165.29 -157.64,-252.71 0,-161.03 191.71,-321.1 525.98,-439.19 347.39,-122.73 809.76,-190.31 1301.98,-190.31 420,0 815.41,49.4 1131.97,136.54 -290.91,-63.22 -628.82,-98.16 -976.62,-98.16 -1053.27,0 -1878.35,298.66 -1878.35,679.9 0,56.36 17.65,111.13 52.69,163.94z"/>
  </g>
  <g>
   <polygon class="fil0 str2" points="4056.15,953.55 3900.07,1543.53 4125.84,1543.53 4280.19,953.55 "/>
   <polygon id="1" class="fil1" points="4056.15,953.55 3900.07,1543.53 4125.84,1543.53 4280.19,953.55 "/>
  </g>
 </g>
</svg>
